<svg xmlns="http://www.w3.org/2000/svg" width="64" height="64" viewBox="0 0 64 64" fill="none">
  <title>Shoply Spark Match Cluster</title>
  <path id="orbit-left" d="M14 38C17.7 48.4 28.3 54.4 39 51.8" stroke="#6266F1" stroke-width="3" stroke-linecap="round"/>
  <path id="orbit-right" d="M50 26C46.7 15.2 36.4 9.1 25.5 11.3" stroke="#6266F1" stroke-width="3" stroke-linecap="round"/>
  <circle id="signal-dot-strong" cx="13" cy="32" r="6" fill="#6266F1"/>
  <circle id="signal-dot-medium" cx="47" cy="50" r="5" fill="#AEB0F7"/>
  <circle id="signal-dot-light" cx="51" cy="16" r="4" fill="#D9DAFC"/>
  <path id="matched-bag" d="M23 25H41L43.5 46H20.5L23 25Z" fill="#6266F1"/>
  <path id="bag-handle" d="M26 26V22C26 18.7 28.7 16 32 16C35.3 16 38 18.7 38 22V26" stroke="#6266F1" stroke-width="3" stroke-linecap="round"/>
  <path id="s-mark" d="M36.5 31.5C35.35 30.55 33.9 30.1 32.15 30.1C29.7 30.1 28.25 31.05 28.25 32.5C28.25 33.9 29.5 34.55 32.2 35.15C34.95 35.75 36.4 36.75 36.4 38.55C36.4 40.5 34.45 41.7 31.75 41.7C29.95 41.7 28.3 41.2 27.05 40.15" stroke="white" stroke-width="2.25" stroke-linecap="round"/>
</svg>
