<svg xmlns="http://www.w3.org/2000/svg" width="96" height="32" viewBox="0 0 96 32" fill="none">
  <title>Shoply Spark Conditional Signal Overlays</title>
  <circle id="reaction-overlay" cx="16" cy="16" r="8" fill="#FF6F4E"/>
  <path id="reaction-heart" d="M16 21C11.3 18.2 9.5 16 9.5 13.5C9.5 11.5 11 10 13 10C14.2 10 15.3 10.6 16 11.5C16.7 10.6 17.8 10 19 10C21 10 22.5 11.5 22.5 13.5C22.5 16 20.7 18.2 16 21Z" fill="white"/>
  <circle id="verified-overlay" cx="48" cy="16" r="8" fill="#17B879"/>
  <path id="verified-check" d="M44 16L47 19L52.5 13" stroke="white" stroke-width="2" stroke-linecap="round" stroke-linejoin="round"/>
  <circle id="exploration-overlay" cx="80" cy="16" r="8" fill="#E6A400"/>
  <path id="exploration-plus" d="M80 12V20M76 16H84" stroke="white" stroke-width="2" stroke-linecap="round"/>
</svg>
